<svg width="46" height="25" viewBox="0 0 46 25" fill="none" xmlns="http://www.w3.org/2000/svg">
<path d="M45.9314 13.1096C45.9314 12.7454 45.8565 12.3085 45.8565 11.9443C45.8565 11.5073 45.9314 10.9975 45.6316 10.6333C45.1818 10.0507 44.2822 10.1235 43.6075 10.1235C43.6075 9.10389 43.5326 8.08425 43.5326 7.06462C43.5326 6.33631 43.7574 5.17101 43.3077 4.51553C42.558 3.49589 40.459 3.64156 39.1846 3.56873C39.1846 3.42306 39.1846 3.20457 39.1846 3.05891C38.9597 0.436987 37.4604 0 34.8367 0C31.988 0 31.2384 0.946804 31.0135 3.71439C30.8636 5.89932 30.7886 8.08425 30.7886 10.1964C28.0149 10.4149 25.0913 10.1235 22.3926 10.1235C19.9937 10.1235 17.6698 10.1964 15.271 10.2692C15.271 8.08425 15.196 5.97215 15.0461 3.78722C14.8212 1.09247 14.0715 0.07283 11.2229 0.07283C9.19883 0.07283 7.17479 0.291326 6.87493 2.47626C6.79997 2.84042 6.79996 3.2774 6.79996 3.64156C5.52557 3.64156 3.57649 3.56872 2.82684 4.4427C1.92727 5.608 2.3021 8.59407 2.3021 9.97786C2.3021 10.0507 2.3021 10.0507 2.3021 10.1235C1.70238 10.1235 1.0277 10.0507 0.57791 10.2692C-0.246699 10.6333 0.0531613 12.0171 0.0531613 12.7454C0.0531613 13.4738 -0.171725 14.6391 0.727848 14.7847C1.17764 14.8576 1.70238 14.9304 2.15217 14.8576C2.15217 16.5327 2.22713 18.2806 2.67692 19.7372C3.1267 21.6308 5.00082 21.6308 6.79996 21.6308C6.79996 21.8493 6.79997 22.1407 6.87493 22.3592C7.09983 24.6897 8.44918 24.9082 10.5482 24.9082C11.8975 24.9082 14.0715 25.4181 14.8961 24.0343C15.3459 23.2331 15.271 21.8493 15.271 20.9754C15.3459 19.0818 15.3459 17.1881 15.271 15.2945C15.271 15.1489 15.271 15.0032 15.271 14.8576C20.3685 14.7847 25.6161 15.076 30.7136 14.7847C30.7136 16.4598 30.7136 18.2078 30.7136 19.8829C30.7136 20.9754 30.5637 22.3592 30.9385 23.4516C31.5382 25.2724 33.7122 24.8354 35.3614 24.8354C37.1606 24.8354 38.7348 24.9082 39.1846 22.869C39.2596 22.432 39.3345 21.995 39.3345 21.558C41.0587 21.558 42.9328 21.4852 43.3826 19.7372C43.7575 18.3534 43.8324 16.6783 43.7575 15.076C44.3572 15.076 45.0318 15.076 45.4816 14.8576C46.1563 14.6391 46.0064 13.7651 45.9314 13.1096ZM1.10267 13.9107C1.02771 13.4738 1.10267 12.9639 1.10267 12.527C1.10267 12.2356 1.10267 12.0171 1.10267 11.7258C1.10267 11.653 1.17764 11.2888 1.10267 11.2888C1.2526 11.216 1.70238 11.2888 1.77735 11.2888C1.92728 11.2888 2.15217 11.2888 2.3021 11.2888C2.3021 12.1628 2.22714 13.1096 2.22714 14.0564C1.85232 14.0564 1.47749 13.9836 1.10267 13.9107ZM3.65146 19.0089C3.42656 18.2078 3.50153 17.3338 3.50153 16.5327C3.3516 14.4206 3.3516 12.2356 3.3516 10.0507C3.3516 8.81257 3.20167 7.28311 3.50153 6.04498C3.87635 4.58836 5.30068 4.73402 6.72501 4.73402C6.65004 7.13745 6.87493 9.54088 6.87493 11.8715C6.79997 14.7847 6.65003 17.7708 6.79996 20.684C5.15074 20.7569 4.17621 20.8297 3.65146 19.0089ZM14.2215 21.9222C14.1465 23.0146 14.2964 23.8158 13.097 24.1071C12.4223 24.2528 11.4478 24.1071 10.7731 24.1071C9.49869 24.1071 8.29925 23.5245 7.92443 22.2863C7.69954 21.3395 7.92443 19.9557 7.92443 19.0089C7.92443 16.6783 7.84947 14.3477 7.92443 12.0171C7.92443 10.4877 7.92444 8.95823 7.84947 7.42877C7.84947 6.19064 7.92443 5.02535 7.92443 3.78722C7.92443 1.74795 9.27379 1.31096 11.1479 1.31096C12.0475 1.31096 13.2469 1.74795 13.7717 2.54909C14.0715 2.98608 13.9216 4.15137 13.9216 4.73402C13.9966 5.89932 13.9966 7.13745 14.0715 8.30275C14.1465 10.5605 14.2215 12.8911 14.2215 15.1489C14.2964 17.3338 14.3714 19.6644 14.2215 21.9222ZM15.3459 13.9836C15.3459 13.1096 15.3459 12.2356 15.3459 11.3617C17.6698 11.2888 20.0687 11.2888 22.4675 11.216C25.2412 11.216 28.1648 11.5073 30.8636 11.2888C30.8636 12.1628 30.8636 13.0368 30.8636 13.9107C25.691 14.2021 20.4435 13.9836 15.3459 13.9836ZM38.2101 7.13745C38.1351 8.66691 38.1351 10.1964 38.1351 11.7258C38.2101 13.9107 38.1351 16.0957 38.1351 18.2806C38.1351 20.684 38.8848 23.8158 35.3614 23.8886C34.7617 23.8886 33.7122 24.1071 33.1125 23.8886C31.5382 23.2331 31.8381 21.995 31.7631 20.7569C31.6882 18.5719 31.6882 16.4598 31.7631 14.2749C31.7631 12.0171 31.8381 9.8322 31.9131 7.57444C31.988 5.17101 31.2384 1.01964 34.8367 1.01964C36.9357 1.01964 37.7603 1.74795 38.1351 3.86005C38.36 4.95252 38.285 6.11782 38.2101 7.13745ZM42.558 16.7512C42.558 17.4795 42.633 18.3534 42.4081 19.0089C41.9583 20.684 40.8338 20.6112 39.3345 20.6112C39.3345 19.5187 39.1846 18.4263 39.2596 17.4066C39.2596 15.513 39.2596 13.6194 39.2596 11.7258C39.1846 9.32238 39.4095 6.99179 39.3345 4.58836C40.0092 4.58836 40.6839 4.58836 41.2836 4.73402C42.4831 5.02535 42.483 5.17101 42.558 6.40914C42.7079 8.01143 42.558 9.68654 42.633 11.216C42.633 13.1824 42.633 14.9304 42.558 16.7512ZM43.7575 14.1292C43.6825 13.1824 43.6825 12.2356 43.6825 11.3617C43.6825 11.2888 43.6825 11.216 43.6825 11.216C43.9074 11.216 44.1323 11.216 44.4321 11.216C44.8069 11.216 44.807 11.1432 44.8819 11.4345C44.9569 11.653 44.8819 12.0171 44.8819 12.2356C44.8819 12.527 44.9569 12.8183 44.9569 13.1096C44.9569 13.3281 44.9569 13.5466 44.9569 13.8379C44.9569 13.8379 44.9569 13.9836 44.9569 14.0564H44.8819C44.4321 14.0564 44.1323 14.0564 43.7575 14.1292Z" fill="#2B3541"/>
<path d="M9.04887 3.64165C8.52412 4.80694 8.67404 6.26357 8.82397 7.5017C8.89893 8.15718 9.94844 8.15718 9.87348 7.5017C9.72355 6.40923 9.57362 5.02544 10.0234 3.93297C10.3233 3.27749 9.27376 3.059 9.04887 3.64165Z" fill="#2B3541"/>
<path d="M10.4733 2.11206C9.79862 2.11206 9.79862 3.13169 10.4733 3.13169C11.148 3.13169 11.148 2.11206 10.4733 2.11206Z" fill="#2B3541"/>
<path d="M33.2623 3.20456C32.8875 3.71438 32.8875 4.44269 32.8126 5.02534C32.7376 5.75365 32.6626 6.48196 32.7376 7.21027C32.8126 7.86575 33.8621 7.86575 33.7871 7.21027C33.7121 6.62762 33.7871 5.97214 33.7871 5.38949C33.8621 4.87967 33.8621 4.15136 34.1619 3.71437C34.5367 3.13172 33.6372 2.62191 33.2623 3.20456Z" fill="#2B3541"/>
<path d="M34.7619 1.89355C34.0872 1.89355 34.0872 2.91319 34.7619 2.91319C35.4365 2.91319 35.4365 1.89355 34.7619 1.89355Z" fill="#2B3541"/>
</svg>
