<svg width="82" height="82" viewBox="0 0 82 82" fill="none" xmlns="http://www.w3.org/2000/svg">
<circle cx="41" cy="41" r="41" fill="#FFFEFC"/>
<path d="M53.3591 37.1632C53.0329 34.1504 51.1444 31.6063 48.4146 30.535C45.6848 29.4638 42.5774 30.0329 40.3798 31.9578C39.0578 30.8029 37.341 30.1166 35.5555 30.0329C33.4266 29.9325 31.4179 30.6522 29.8899 32.0749C28.4649 33.3972 27.5894 35.2216 27.4177 37.1967C27.3318 38.1842 27.4348 39.1717 27.761 40.2262L14.4384 40.1927C14.0778 40.1927 13.786 40.3601 13.6143 40.6447C13.4254 40.9627 13.4254 41.3644 13.6143 41.6824C13.786 41.9669 14.0778 42.1343 14.4384 42.1343L29.1689 42.1678C29.5122 42.1678 29.7869 42.0172 29.9586 41.7661C30.1475 41.4816 30.1818 41.0798 30.0273 40.7451C28.877 38.1507 29.3062 35.4057 31.1432 33.5981C32.2763 32.4934 33.77 31.9243 35.3323 31.9745C36.9805 32.0247 38.56 32.7779 39.6587 34.0165C39.8304 34.2006 40.088 34.3178 40.3798 34.3178C40.6717 34.3178 40.9292 34.2174 41.1009 34.0165C42.8006 32.1084 45.3586 31.4389 47.6592 32.3092C49.6851 33.0792 51.1444 35.004 51.3847 37.2134C51.4534 37.8495 52.0371 38.1675 52.5694 38.1173C53.0844 38.0503 53.4106 37.6653 53.3591 37.1632Z" fill="#2A2A2A"/>
<path d="M11.0728 49.5826H8.70353C8.41167 49.5826 8.18848 49.3483 8.18848 49.0805V33.1461C8.18848 32.8616 8.42883 32.644 8.70353 32.644H11.0899C11.3818 32.644 11.605 32.8783 11.605 33.1461V49.0805C11.5878 49.3483 11.3646 49.5826 11.0728 49.5826Z" fill="#2A2A2A"/>
<path d="M6.91863 47.5908H4.51505C4.24036 47.5908 4 47.3732 4 47.0887V35.0877C4 34.8199 4.22319 34.5856 4.51505 34.5856H6.91863C7.19332 34.5856 7.43368 34.8031 7.43368 35.0877V47.0887C7.43368 47.3732 7.21049 47.5908 6.91863 47.5908Z" fill="#2A2A2A"/>
<path d="M15.2276 51.3066H12.8584C12.5665 51.3066 12.3262 51.0723 12.3262 50.7877V31.4054C12.3262 31.1209 12.5665 30.8865 12.8584 30.8865H15.2276C15.5195 30.8865 15.7599 31.1209 15.7599 31.4054V50.8045C15.7599 51.089 15.5195 51.3066 15.2276 51.3066Z" fill="#2A2A2A"/>
<path d="M66.4421 40.6447C66.2705 40.3601 65.9786 40.1927 65.6181 40.1927L51.6602 40.2262C51.3511 40.2262 50.9391 40.3936 50.7846 40.7284C49.2051 44.1429 46.0117 46.7038 43.7284 48.3441C42.7154 49.0638 41.7025 49.7333 40.6895 50.3359L40.5865 50.3861C40.432 50.4698 40.432 50.4698 40.2947 50.4195C39.8998 50.2689 39.5049 50.0011 39.1272 49.75C38.9727 49.6496 38.8182 49.5492 38.6808 49.4488C37.6507 48.796 36.758 48.1767 35.9339 47.5574C34.3029 46.302 32.9638 45.0467 31.8307 43.6742C31.5045 43.2725 30.9894 43.2223 30.5774 43.5403C30.1653 43.8583 29.9765 44.4944 30.3885 44.9965C31.4873 46.3188 32.7921 47.5741 34.3887 48.8127C35.3158 49.5324 36.2944 50.2354 37.3074 50.8882C37.8224 51.223 38.3718 51.5577 38.9384 51.8925L39.0586 51.9594C39.4534 52.1937 39.8998 52.4616 40.432 52.4616C40.535 52.4616 40.6552 52.4448 40.7754 52.4281C41.2046 52.3276 41.6166 52.0598 41.9943 51.8255C42.0974 51.7586 42.1832 51.6916 42.2862 51.6414C42.8871 51.2732 43.488 50.8715 44.0889 50.4698C45.7714 49.3148 47.1964 48.1767 48.4668 46.9883C50.2008 45.348 51.4541 43.7579 52.2954 42.1678L65.6181 42.1343C65.9786 42.1343 66.2705 41.967 66.4421 41.6824C66.631 41.3644 66.631 40.9627 66.4421 40.6447Z" fill="#FBF138"/>
<path d="M69.9272 49.5826H72.3136C72.6054 49.5826 72.8286 49.3483 72.8286 49.0805V33.1461C72.8286 32.8616 72.5883 32.644 72.3136 32.644H69.9272C69.6353 32.644 69.4121 32.8783 69.4121 33.1461V49.0805C69.4121 49.3483 69.6353 49.5826 69.9272 49.5826Z" fill="#FBF138"/>
<path d="M74.0815 47.5909H76.485C76.7597 47.5909 77.0001 47.3733 77.0001 47.0887V35.0877C77.0001 34.8199 76.7769 34.5856 76.485 34.5856H74.0815C73.8068 34.5856 73.5664 34.8032 73.5664 35.0877V47.0887C73.5664 47.3733 73.7896 47.5909 74.0815 47.5909Z" fill="#FBF138"/>
<path d="M65.7725 51.3066H68.1417C68.4335 51.3066 68.6739 51.0723 68.6739 50.7877V31.4054C68.6739 31.1209 68.4335 30.8865 68.1417 30.8865H65.7725C65.4806 30.8865 65.2402 31.1209 65.2402 31.4054V50.8045C65.2402 51.089 65.4806 51.3066 65.7725 51.3066Z" fill="#FBF138"/>
</svg>
